<?xml version="1.0" encoding="utf-8"?>
<!-- Generator: Adobe Illustrator 22.0.1, SVG Export Plug-In . SVG Version: 6.00 Build 0)  -->
<svg version="1.1" id="Layer_1" xmlns="http://www.w3.org/2000/svg" xmlns:xlink="http://www.w3.org/1999/xlink" x="0px" y="0px"
	 viewBox="0 0 500 500" style="enable-background:new 0 0 500 500;" xml:space="preserve">
<g>
	<polygon style="fill:#FFFFFF;" points="250.2,1.1 250.1,1.2 249.9,1.1 249.9,1.3 36.9,121.5 36.7,370.5 36.6,370.5 249.8,499 
		249.8,498.9 249.9,499 463.3,378.6 463.5,129.6 	"/>
	<g>
		<path d="M159.9,93.1H135c-1.1,0-2.5-0.9-2.5,0.2v24.9c0,1.1,1.4,2.4,2.5,2.4h24.9c1.1,0,0.2-1.3,0.2-2.4V93.3
			C160.1,92.2,161,93.1,159.9,93.1z"/>
		<path d="M160.1,131.7c0-1.1-0.9-2-2-2h-23.6c-1.1,0-2,0.9-2,2v23.6c0,1.1,0.9,2,2,2h23.6c1.1,0,2-0.9,2-2V131.7z"/>
		<path d="M159.9,166.5H135c-1.1,0-2.5,0.8-2.5,1.9v24.9c0,1.1,1.4,0.8,2.5,0.8h24.9c1.1,0,0.2,0.3,0.2-0.8v-24.9
			C160.1,167.3,161,166.5,159.9,166.5z"/>
		<path d="M159.9,203.2H135c-1.1,0-2.5,1.6-2.5,2.7v24.9c0,1.1,1.4-0.1,2.5-0.1h24.9c1.1,0,0.2,1.1,0.2,0.1v-24.9
			C160.1,204.8,161,203.2,159.9,203.2z"/>
		<path d="M160.1,241.8c0-1.1-0.9-2-2-2h-23.6c-1.1,0-2,0.9-2,2v23.6c0,1.1,0.9,2,2,2h23.6c1.1,0,2-0.9,2-2V241.8z"/>
		<path d="M160.1,283.1c0-1.1-0.9-2-2-2h-23.6c-1.1,0-2,0.9-2,2v23.6c0,1.1,0.9,2,2,2h23.6c1.1,0,2-0.9,2-2V283.1z"/>
		<path d="M159.9,317.9H135c-1.1,0-2.5-0.5-2.5,0.6v24.9c0,1.1,1.4,2.1,2.5,2.1h24.9c1.1,0,0.2-1,0.2-2.1v-24.9
			C160.1,317.3,161,317.9,159.9,317.9z"/>
		<path d="M159.9,354.6H135c-1.1,0-2.5,0.3-2.5,1.4v24.9c0,1.1,1.4,1.3,2.5,1.3h24.9c1.1,0,0.2-0.2,0.2-1.3v-24.9
			C160.1,354.9,161,354.6,159.9,354.6z"/>
		<path d="M360,93.1h-24.9c-1.1,0-0.7-0.9-0.7,0.2v24.9c0,1.1-0.3,2.4,0.7,2.4H360c1.1,0,1.9-1.3,1.9-2.4V93.3
			C361.9,92.2,361.1,93.1,360,93.1z"/>
		<path d="M361.9,131.7c0-1.1-0.9-2-1.9-2h-23.6c-1.1,0-1.9,0.9-1.9,2v23.6c0,1.1,0.9,2,1.9,2H360c1.1,0,1.9-0.9,1.9-2V131.7z"/>
		<path d="M360,166.5h-24.9c-1.1,0-0.7,0.8-0.7,1.9v24.9c0,1.1-0.3,0.8,0.7,0.8H360c1.1,0,1.9,0.3,1.9-0.8v-24.9
			C361.9,167.3,361.1,166.5,360,166.5z"/>
		<path d="M360,203.2h-24.9c-1.1,0-0.7,1.6-0.7,2.7v24.9c0,1.1-0.3-0.1,0.7-0.1H360c1.1,0,1.9,1.1,1.9,0.1v-24.9
			C361.9,204.8,361.1,203.2,360,203.2z"/>
		<path d="M361.9,241.8c0-1.1-0.9-2-1.9-2h-23.6c-1.1,0-1.9,0.9-1.9,2v23.6c0,1.1,0.9,2,1.9,2H360c1.1,0,1.9-0.9,1.9-2V241.8z"/>
		<path d="M361.9,283.1c0-1.1-0.9-2-1.9-2h-23.6c-1.1,0-1.9,0.9-1.9,2v23.6c0,1.1,0.9,2,1.9,2H360c1.1,0,1.9-0.9,1.9-2V283.1z"/>
		<path d="M360,317.9h-24.9c-1.1,0-0.7-0.5-0.7,0.6v24.9c0,1.1-0.3,2.1,0.7,2.1H360c1.1,0,1.9-1,1.9-2.1v-24.9
			C361.9,317.3,361.1,317.9,360,317.9z"/>
		<path d="M360,354.6h-24.9c-1.1,0-0.7,0.3-0.7,1.4v24.9c0,1.1-0.3,1.3,0.7,1.3H360c1.1,0,1.9-0.2,1.9-1.3v-24.9
			C361.9,354.9,361.1,354.6,360,354.6z"/>
		<path d="M325.2,95c0-1.1-0.9-2-2-2H171.2c-1.1,0-2,0.9-2,2v138.3c0,1.1,0.9,2,2,2h152.1c1.1,0,2-0.9,2-2V95z M245,208.8
			c-5.6,0-10.3-4.2-10.3-10.3c0-5.9,4.7-10.2,10.3-10.2c5.5,0,10.2,4.2,10.2,10.2C255.2,204.6,250.5,208.8,245,208.8z M251.8,173
			v7.3h-13.8v-18.3h5c9.9,0,13.6-6,13.6-12c0-5.1-3.9-10.4-10.2-10.4c-6.7,0-9.9,2.9-12.8,7.7l-13.1-7.7
			c4.4-9.6,13.2-14.8,25.9-14.8c17.3,0,26.4,12,26.4,24.7C272.9,162.4,265.6,171.1,251.8,173z"/>
		<path d="M325.2,241.8c0-1.1-0.9-2-2-2H171.2c-1.1,0-2,0.9-2,2v138.3c0,1.1,0.9,2,2,2h152.1c1.1,0,2-0.9,2-2V241.8z M256.7,267.4
			l-2.7,55h-13l-2.7-55H256.7z M247.6,351.9c-5.6,0-10.3-4.2-10.3-10.3c0-5.9,4.7-10.2,10.3-10.2c5.4,0,10.2,4.2,10.2,10.2
			C257.7,347.6,253,351.9,247.6,351.9z"/>
	</g>
</g>
</svg>
