<?xml version="1.0" encoding="utf-8"?>
<!-- Generator: Adobe Illustrator 22.0.1, SVG Export Plug-In . SVG Version: 6.00 Build 0)  -->
<svg version="1.1" id="Layer_1" xmlns="http://www.w3.org/2000/svg" xmlns:xlink="http://www.w3.org/1999/xlink" x="0px" y="0px"
	 viewBox="0 0 500 500" style="enable-background:new 0 0 500 500;" xml:space="preserve">
<polygon style="fill:#FFFFFF;" points="251.1,4.3 251.1,5.5 249.2,4.3 39,123 38.8,368.2 248.9,494.9 250,494.2 251,494.8 
	461.3,376.3 461.5,130.9 "/>
<g>
	<path d="M264.3,178.7l6.9,13c0.3,0.6,0.9,1,1.5,1.2c0.6,0.2,1.3,0.1,1.9-0.2c6.6-3.6,14-5.6,21.5-5.6c9.2,0,18.1,2.9,25.6,8.3
		c9,6.4,15.1,17.1,17.3,28.1c0.2,1.2,1.3,3,2.4,3h14.9c0.7,0,1.4-1.4,1.9-1.9s0.7-1.8,0.6-2.5c-1.9-12.5-7.3-24.2-15.6-33.4
		l39.8-55.3c0.9-1.2,1.2-2.8,1-4.3c-0.2-1.5-1.1-2.8-2.3-3.7L367,114.8c-2.4-1.7-6.1-1.1-7.9,1.3L319,171.8
		c-17.2-6.7-37.4-5.4-53.7,3.6C264.1,176,263.6,177.5,264.3,178.7z"/>
	<path d="M383.7,238.5c-1.3-1.5-3.2-2.9-5.2-2.9H159c4.7-22.6,26.3-41.6,51.3-41.6l0.9,0.9c0,0,0,0,0,0c1.4,0,2.5-1.4,2.5-2.8
		l0.1-8.1c4-20,21.8-34.6,42.2-34.6c8.6,0,17,2.5,24.1,7.3c0.5,0.4,1.2,0.5,1.9,0.4c0.6-0.1,1.2-0.5,1.6-1.1l9.6-14.2
		c0.4-0.5,0.5-1.2,0.4-1.9c-0.1-0.6-0.5-1.2-1-1.6c-10.8-7.3-23.4-11.1-36.4-11.1c-28.9,0-54.4,18.6-62.5,46.3
		c-30.4,7-52.9,30.4-57,62.1h-7.2c-2,0-3.9,1.4-5.2,2.9c-1.3,1.5-1.8,3.8-1.5,5.7l17.2,104.7c0.3,7,6.8,12.6,37.2,16.8
		c20.6,2.9,47.8,4.5,76.8,4.5c29,0,56.3-1.6,76.8-4.4c30.5-4.2,36.9-9.8,37.2-16.5l17.2-105.1C385.6,242.2,385,240,383.7,238.5z"/>
</g>
</svg>
