<?xml version="1.0" encoding="utf-8"?>
<!-- Generator: Adobe Illustrator 22.0.1, SVG Export Plug-In . SVG Version: 6.00 Build 0)  -->
<svg version="1.1" id="Layer_1" xmlns="http://www.w3.org/2000/svg" xmlns:xlink="http://www.w3.org/1999/xlink" x="0px" y="0px"
	 viewBox="0 0 500 500" style="enable-background:new 0 0 500 500;" xml:space="preserve">
<g>
	<polygon style="fill:#FFFFFF;" points="250.2,4.7 250.1,4.8 249.9,4.7 249.9,4.9 39.8,123.5 39.6,369 39.6,369 249.8,495.7 
		249.8,495.7 249.9,495.7 460.3,377 460.5,131.4 	"/>
	<path d="M383.3,194.9L383.3,194.9h-95.2l-29.4-90.2c-1.2-3.7-4.7-6.1-8.6-6.1s-7.4,2.3-8.6,6l-29.4,90.2h-95.2
		c-3.9,0-7.4,2.9-8.6,6.6c-1.2,3.7,0.1,8,3.3,10.3l77,56l-29.4,90.5c-1.2,3.7,0.1,7.8,3.3,10.1c1.6,1.1,3.5,1.7,5.3,1.7
		c1.9,0,3.7-0.6,5.3-1.7l77-55.9l77,55.9c1.6,1.1,3.5,1.7,5.3,1.7c1.9,0,3.7-0.6,5.3-1.7c3.2-2.3,4.5-6.4,3.3-10.1l-29.4-90.5
		l76.8-55.8c2.4-1.6,3.9-4.7,3.9-7.8C392.3,199.3,388.3,194.9,383.3,194.9z"/>
</g>
</svg>
