<?xml version="1.0" encoding="utf-8"?>
<!-- Generator: Adobe Illustrator 22.0.1, SVG Export Plug-In . SVG Version: 6.00 Build 0)  -->
<svg version="1.1" id="Layer_1" xmlns="http://www.w3.org/2000/svg" xmlns:xlink="http://www.w3.org/1999/xlink" x="0px" y="0px"
	 viewBox="0 0 1274 218" style="enable-background:new 0 0 1274 218;" xml:space="preserve">
<style type="text/css">
	.st0{fill:#15A8DF;}
</style>
<g>
	<path class="st0" d="M1078.5,174.6V87.8h28.5l12.2-21.2h-40.7V31.4h-28.2v35.2h-21.2v21.2h21.2v88c0,22.4,11.6,37.4,35.1,37.4
		c3.9,0,11.2,0,14.7-1.1l7.9-20C1075.8,193.8,1078.5,186.3,1078.5,174.6"/>
	<path class="st0" d="M788.3,211.7c-53.4,0-63-12.7-63-72.5c0-59.8,14.2-74.1,63-74.1c50.2,0,63,14.3,63,74.1
		C851.3,198.9,841.9,211.7,788.3,211.7 M788.3,88.1c-31.9,0-36,6.8-36,51.1c0,44.3,5.2,50.6,37.1,50.6c32.2,0,35-6.3,35-50.6
		C824.5,94.8,820.5,88.1,788.3,88.1"/>
	<path class="st0" d="M655.4,66.7h35.3v35.3h-35.3V66.7z M655.4,172.4h35.3v35.3h-35.3V172.4z"/>
	<path class="st0" d="M1000.9,187.5V66.7h-25.5l0,117.7c-8.3,3.2-23.9,5.2-42.2,3.3c-15.6-1.6-16.9-9.8-16.9-24.2V90.7
		c0-24.8-16.2-25.3-19.5-25.3c-3.2,0-15.8,0-15.8,0v22.1l7.1,1.9v81.7c0,26.2,12.8,36.6,35.9,36.6h40.3l11.1-19.4
		c0,0,3.6,19.4,20.7,19.4h11.9v-14.6L1000.9,187.5z"/>
	<path class="st0" d="M604.1,207.7c-17.1,0-19.3-14.7-19.3-14.7l-29.5,17c0,0-1.8,0.6-15.4,0.6c-50.7,0-57.4-29.4-57.4-72
		c0-41.1,7.4-74.1,54.2-74.1c12.8,0,18.6,1.9,27.8,3.1l20.5,14.4V3.2h28.2v182.9v4.1v17.5H604.1z M584.9,89.8
		c-7.1-0.3-22.7-2.1-38.1-2.1c-30.3,0-36.7,13.6-36.7,52.3c0,42.4,7.1,49,37.5,49c17.9,0,37.3-3.5,37.3-3.5V89.8z"/>
	<polygon class="st0" points="253.5,207.7 253.5,86.5 246.4,79.8 246.4,66.7 281.7,66.7 281.7,207.7 	"/>
	<path class="st0" d="M443.9,187.4v-80.8c0-34.5-2.6-41.8-37.5-41.8c-16.2,0-26.6,0.1-31,0.1c-3.4,0-22.1,14.8-22.1,14.8
		s-4.4-13.1-20.8-13.1h-15.5v19.8l7.5,6.6l1.4,121.7h27.7c0,0,0.1-113.3,0.1-117.6c0,0,12.9-9.4,35.3-9.4h7.8c15.2,0,19,0.5,19,19.5
		v79.9c0,17.6,7.5,24.1,21.6,24.1c3.3,0,13.6,0,13.6,0v-18.9L443.9,187.4z"/>
	<path class="st0" d="M218.2,66.7h-23.1c0-7,0-12.5,0-13.8c0-19,7.6-25.2,14.6-26.6l0-18.4c-33.7,8.1-40.1,16.5-41.4,58.8h-13.5
		v21.2H168l0.1,119.9h27.2l-0.1-119.9h23V66.7z"/>
</g>
</svg>
