<?xml version="1.0" encoding="utf-8"?>
<!-- Generator: Adobe Illustrator 22.0.1, SVG Export Plug-In . SVG Version: 6.00 Build 0)  -->
<svg version="1.1" id="Layer_1" xmlns="http://www.w3.org/2000/svg" xmlns:xlink="http://www.w3.org/1999/xlink" x="0px" y="0px"
	 viewBox="0 0 972 218" style="enable-background:new 0 0 972 218;" xml:space="preserve">
<path style="fill:#15A8DF;" d="M927.5,174.6V87.8H956l12.2-21.2h-40.7V31.4h-28.2v35.2h-21.2v21.2h21.2v88
	c0,22.4,11.6,37.4,35.1,37.4c3.9,0,11.2,0,14.7-1.1l7.9-20C924.8,193.8,927.5,186.3,927.5,174.6"/>
<path style="fill:#15A8DF;" d="M637.3,211.7c-53.4,0-63-12.7-63-72.5s14.2-74.1,63-74.1c50.2,0,63,14.3,63,74.1
	C700.3,198.9,690.9,211.7,637.3,211.7 M637.3,88.1c-31.9,0-36,6.8-36,51.1s5.2,50.6,37.1,50.6c32.2,0,35-6.3,35-50.6
	C673.5,94.8,669.5,88.1,637.3,88.1"/>
<path style="fill:#15A8DF;" d="M504.4,66.7h35.3V102h-35.3V66.7z M504.4,172.4h35.3v35.3h-35.3V172.4z"/>
<path style="fill:#15A8DF;" d="M849.9,187.5V66.7h-25.5v117.7c-8.3,3.2-23.9,5.2-42.2,3.3c-15.6-1.6-16.9-9.8-16.9-24.2V90.7
	c0-24.8-16.2-25.3-19.5-25.3c-3.2,0-15.8,0-15.8,0v22.1l7.1,1.9v81.7c0,26.2,12.8,36.6,35.9,36.6h40.3l11.1-19.4
	c0,0,3.6,19.4,20.7,19.4H857v-14.6L849.9,187.5z"/>
<path style="fill:#15A8DF;" d="M453.1,207.7c-17.1,0-19.3-14.7-19.3-14.7l-29.5,17c0,0-1.8,0.6-15.4,0.6c-50.7,0-57.4-29.4-57.4-72
	c0-41.1,7.4-74.1,54.2-74.1c12.8,0,18.6,1.9,27.8,3.1L434,82V3.2h28.2v182.9v4.1v17.5H453.1z M433.9,89.8
	c-7.1-0.3-22.7-2.1-38.1-2.1c-30.3,0-36.7,13.6-36.7,52.3c0,42.4,7.1,49,37.5,49c17.9,0,37.3-3.5,37.3-3.5V89.8z"/>
<polygon style="fill:#15A8DF;" points="102.5,207.7 102.5,86.5 95.4,79.8 95.4,66.7 130.7,66.7 130.7,207.7 "/>
<path style="fill:#15A8DF;" d="M292.9,187.4v-80.8c0-34.5-2.6-41.8-37.5-41.8c-16.2,0-26.6,0.1-31,0.1c-3.4,0-22.1,14.8-22.1,14.8
	s-4.4-13.1-20.8-13.1H166v19.8l7.5,6.6l1.4,121.7h27.7c0,0,0.1-113.3,0.1-117.6c0,0,12.9-9.4,35.3-9.4h7.8c15.2,0,19,0.5,19,19.5
	v79.9c0,17.6,7.5,24.1,21.6,24.1c3.3,0,13.6,0,13.6,0v-18.9L292.9,187.4z"/>
<path style="fill:#15A8DF;" d="M67.2,66.7H44.1c0-7,0-12.5,0-13.8c0-19,7.6-25.2,14.6-26.6V7.9C25,16,18.6,24.4,17.3,66.7H3.8v21.2
	H17l0.1,119.9h27.2L44.2,87.9h23V66.7z"/>
</svg>
