<?xml version="1.0" encoding="utf-8"?>
<!-- Generator: Adobe Illustrator 22.0.1, SVG Export Plug-In . SVG Version: 6.00 Build 0)  -->
<svg version="1.1" id="Layer_1" xmlns="http://www.w3.org/2000/svg" xmlns:xlink="http://www.w3.org/1999/xlink" x="0px" y="0px"
	 viewBox="0 0 500 500" style="enable-background:new 0 0 500 500;" xml:space="preserve">
<polygon style="fill:#15A8DF;" points="463.6,373.3 463.6,126.7 250,3.3 36.4,126.7 36.4,373.3 250,496.7 "/>
<path d="M383,361.3l-52.1-50.7c16.2-20.7,25.9-46.8,25.9-75.1c0-67.3-54.8-122.1-122.1-122.1c-67.3,0-122.1,54.8-122.1,122.1
	s54.8,122.1,122.1,122.1c28.4,0,54.6-9.8,75.3-26.1l52.3,51c2.9,2.8,6.6,4.2,10.3,4.2c3.9,0,7.7-1.5,10.6-4.5
	C389,376.3,388.8,367,383,361.3z M142.1,235.5c0-51,41.5-92.5,92.5-92.5c51,0,92.5,41.5,92.5,92.5S285.7,328,234.7,328
	C183.6,328,142.1,286.5,142.1,235.5z"/>
</svg>
