<?xml version="1.0" encoding="utf-8"?>
<!-- Generator: Adobe Illustrator 22.0.1, SVG Export Plug-In . SVG Version: 6.00 Build 0)  -->
<svg version="1.1" id="Layer_1" xmlns="http://www.w3.org/2000/svg" xmlns:xlink="http://www.w3.org/1999/xlink" x="0px" y="0px"
	 viewBox="0 0 500 500" style="enable-background:new 0 0 500 500;" xml:space="preserve">
<g>
	<polygon style="fill:#15A8DF;" points="463.2,373.1 463.2,126.9 250,3.8 36.8,126.9 36.8,373.1 250,496.2 	"/>
	<path d="M389.9,250c0-2.7-0.1-5.5-0.3-8.2v-2.3h-0.2c-5.1-68.3-60-124.1-129.2-129.2h-0.2v-0.1l-10.4,0c-1.2,0-2.5,0.1-3.7,0.1
		l-6.8,0v0.4c-68.7,5.2-123.7,60.4-128.7,129.2h-0.4l0,10c0,0,0,0.1,0,0.1l0,0.1l0,0.1c0,2.6,0.1,5.2,0.2,7.8l0.1,2.5h0.1
		c5.2,68.7,60.4,123.7,129.2,128.8v0.4l10.2,0c0,0,0,0,0.1,0h10.4v-0.4c68.5-5.1,123.3-59.9,128.7-128.3l0.7,0L389.9,250z
		 M260.5,156.2v-24.5c57.3,5.1,102.6,51.3,107.6,107.8h-20.8c0.3-2.1,0.5-4.1,0.5-6.2c0-18.3-14.9-33.2-33.2-33.2
		c-1.2,0-2.4,0.1-3.5,0.2c-17,1.6-30.4,15.9-30.4,33.3c0,2.2,0.2,4.1,0.5,5.9h-20.7V215c0-7.3-0.2-12-3.4-16.2l-1.5-2l-2.3-1.1
		c-3.6-1.8-7.8-1.6-12.5,0.6l-0.5,0.2c-2.2,0.8-4.3,1.5-7.1,1.5c-6.7,0-12.1-5.4-12.1-12.1c0-6.7,5.4-12.1,12.1-12.1
		c3.2,0,5.8,0.8,7.4,1.5l0.8,0.4l0.9,0.2c0.3,0.1,0.6,0.2,0.9,0.3c1.4,0.5,3.1,1,5.1,1h4.4l3.1-3.1
		C260.5,169.3,260.5,162.9,260.5,156.2z M239.2,131.5v21.3c-2-0.3-4-0.5-5.9-0.5c-18.4,0-33.4,15-33.4,33.4
		c0,18.4,15,33.4,33.4,33.4c2.2,0,4.2-0.2,5.9-0.5v21.1h-24.7c-7.2,0-11.9,0.2-16.1,3.3l-2,1.5l-1.1,2.2c-1.8,3.5-1.6,7.7,0.6,12.3
		l0.2,0.5c0.8,2.3,1.5,4.4,1.5,7.2c0,6.8-5.5,12.4-12.4,12.4c-0.4,0-0.7,0-1.1-0.1c-6.1-0.8-10.8-6-10.8-12.3c0-3.3,0.8-5.9,1.6-7.5
		l0.4-0.8l0.2-0.9c0.1-0.3,0.2-0.6,0.3-0.9c0.5-1.4,1-3,1-5v-4.3l-3-3c-2.9-2.9-6.4-4-10.4-4.4c-2.4-0.3-4.9-0.3-7.6-0.3h-24.4
		C136.2,182.5,182,136.6,239.2,131.5z M239.6,368.5c-57.3-4.9-103.1-50.6-108.2-107.9h21.2c-0.3,2-0.5,4.1-0.5,6.2
		c0,17.2,13.2,31.4,30,33c1.2,0.1,2.4,0.2,3.7,0.2c18.3,0,33.2-14.9,33.2-33.2c0-2.3-0.2-4.4-0.5-6.2h20.9v0.3h0.4v24.6
		c0,7.2,0.2,11.9,3.3,16.1l1.5,2l2.2,1.1c3.5,1.8,7.7,1.6,12.3-0.6l0.5-0.2c2.3-0.8,4.4-1.5,7.2-1.5c6.8,0,12.4,5.6,12.4,12.4
		c0,1.3-0.2,2.5-0.5,3.6c-1.7,4.8-6.3,8.3-11.7,8.3c-3.3,0-5.9-0.9-7.5-1.6l-0.8-0.4l-0.9-0.2c-0.3-0.1-0.6-0.2-0.9-0.3
		c-1.4-0.4-3-1-5-1h-4.3l-3,3c-1.8,1.8-2.8,3.7-3.5,5.9c-1.2,3.6-1.2,7.6-1.2,12.1V368.5z M260.6,368.5v-21.1c2,0.3,4,0.5,6.1,0.5
		c14.9,0,27.5-9.9,31.7-23.4c1.1-3.2,1.6-6.7,1.6-10.3c0-18.3-14.9-33.2-33.2-33.2c-2.3,0-4.4,0.2-6.2,0.5v-20.7H285
		c7.3,0,12-0.2,16.3-3.4l2-1.5l0.2-0.5l0,0l1.1-2.2c1.8-3.5,1.6-7.7-0.6-12.3l-0.2-0.5c-0.8-2.3-1.5-4.4-1.5-7.2
		c0-2,0.5-3.9,1.3-5.6c2.1-3.7,6-6.2,10.6-6.2c6.7,0,12.1,5.4,12.1,12.1c0,3.2-0.8,5.8-1.5,7.4l-0.4,0.9l-0.2,0.9
		c-0.1,0.3-0.2,0.6-0.3,0.9c-0.5,1.4-1,3.1-1,5.1v4.4l3.1,3.1c4.7,4.7,11,4.7,17.7,4.7h24.6C363.1,317.8,317.6,363.4,260.6,368.5z"
		/>
</g>
</svg>
