<svg xmlns="http://www.w3.org/2000/svg" xmlns:xlink="http://www.w3.org/1999/xlink" x="0px" y="0px" style="enable-background:new 0 0 300 101.9" version="1.1" viewBox="0 0 300 101.9" xml:space="preserve">
    <path d="M268.8,37.7c1.4,0,2.4,1.1,2.4,2.5c0,1.5-1.1,2.5-2.4,2.5
			c-1.4,0-2.5-1.1-2.5-2.5C266.4,38.7,267.4,37.7,268.8,37.7v-0.5c-1.7,0-3.1,1.3-3.1,3c0,1.7,1.4,3,3.1,3c1.6,0,3-1.3,3-3
			c0-1.7-1.4-3-3-3V37.7z"/>
    <path d="M268.2,38.9h0.7c0.4,0,0.8,0.1,0.8,0.5c0,0.5-0.4,0.6-0.8,0.6
			h-0.6v0.4h0.6l0.9,1.5h0.6l-1-1.5c0.5-0.1,0.9-0.3,0.9-1c0-0.7-0.4-1-1.2-1h-1.3v3.5h0.5V38.9z"/>
    <path d="M259.5,39.8c0.1-1.1-0.1-1.9-1.5-2.2v-0.8h6.1v0.8l-0.7,0.3
		c-0.7,0.3-1.1,1.1-1.5,2.2l-15,27.9c-1.8,3.5-3.2,7.5-8.7,7.1v-0.6c3.9-0.2,6.6-7.4,8.4-10.7l-10.8-23.7c-0.4-1.1-0.8-1.9-1.5-2.2
		l-0.7-0.3v-0.8h7.6v0.8c-1.5,0.3-1.7,1.2-1.5,2.3c0.1,0.2,0.3,0.6,0.4,0.9l8.6,19.1L259.5,39.8z M156.1,39.8c0.1-1.1,0-1.9-1.5-2.2
		v-0.8h6.1v0.8l-0.7,0.3c-0.7,0.3-1,1.1-1.5,2.2L143.6,68c-1.9,3.5-3.3,7.5-8.8,7.1l0.1-0.6c3.8-0.2,6.6-7.4,8.3-10.7l-10.8-23.7
		c-0.4-1.1-0.8-1.9-1.4-2.2l-0.8-0.3v-0.8h7.6v0.8c-1.4,0.3-1.6,1.2-1.4,2.3c0,0.2,0.2,0.6,0.3,0.9l8.7,19.1L156.1,39.8z
		 M212.1,56.5h11.6l-5.8-14.4L212.1,56.5z M210,61.9c-0.1,1.1,0,2,1.5,2.2v0.8h-6.1v-0.7l0.7-0.4c0.7-0.2,1.1-1,1.5-2.1
		c0.7-1.7,1.8-3.7,2.6-5.6l5.1-12.2c1.4-3.3,2.4-5.6,2.9-7.1h1.2l9.5,23.1c0.3,0.6,0.6,1.4,0.8,1.8c0.4,1.1,0.8,1.9,1.5,2.1l0.7,0.4
		v0.7h-7.6v-0.8c1.5-0.2,1.7-1.1,1.5-2.2c-0.1-0.2-0.3-0.7-0.4-0.9l-1.1-2.9h-12.9l-0.2,0.6C210.9,59.3,210.1,61.3,210,61.9z
		 M77.6,56.5h11.6l-5.8-14.4L77.6,56.5z M75.5,61.9c-0.1,1.1,0,2,1.5,2.2v0.8h-6.1v-0.7l0.7-0.4c0.7-0.2,1.1-1,1.5-2.1
		c0.7-1.7,1.7-3.7,2.5-5.6l5.2-12.2c1.4-3.3,2.3-5.6,2.8-7.1h1.3l9.5,23.1c0.3,0.6,0.6,1.4,0.8,1.8c0.4,1.1,0.8,1.9,1.5,2.1l0.7,0.4
		v0.7h-7.6v-0.8c1.4-0.2,1.7-1.1,1.5-2.2c-0.1-0.2-0.3-0.7-0.4-0.9l-1.1-2.9H76.9l-0.2,0.6C76.4,59.3,75.6,61.3,75.5,61.9z
		 M195.3,39.8c1-0.9,1.5-1.7,1.5-3h5.1l-0.3,0.8l-0.9,0.3c-0.8,0.3-2.4,1.1-3.3,2.2l-8.2,8.2c1.2,2,5.1,6.7,6.8,8.9l3.9,4.9
		c1.5,2,2.8,2.8,5.1,2.8v0.6c-1.8,0.1-3.2,0-3.9-0.1c-2-0.4-4.4-2.6-4.9-3.2l-5.1-6.6c-1.2-1.6-3.4-4.3-5-5.8l0.2-0.7
		C189.9,45.5,193.2,41.9,195.3,39.8z M182,50.2c0,2.4-0.1,3.7-0.1,7.3c0,3.1,0.1,5.8-1.2,6.3l-0.7,0.4l0.2,0.7h6.4l-0.2-0.8
		c-1.4-0.2-1.8-1.1-1.7-2.2l0.2-11.7l-0.2-10.3c-0.1-1.1,0.3-2,1.7-2.3l0.2-0.8h-6.4l-0.2,0.8l0.7,0.3c1.3,0.6,1.2,3.2,1.2,6.3
		C181.9,48.3,182,47.5,182,50.2z M104.5,37l0.1,0.6l1.3,0.5c2,0.7,1.5,2.8,1.4,5.3c0,4.7,0,9.4-0.1,14.1c0,3.1,0.2,5.8-1.1,6.3
		l-0.7,0.4l0.1,0.7h6.4l-0.1-0.8c-1.5-0.2-1.9-1.1-1.8-2.2l0.2-17.5l0.2-5.4c1.1-0.4,2.2-0.6,3.3-0.6c1.6,0,2.9,0.5,3.8,1.4
		c1.8,2,1.7,7.8-0.1,9.7c-1.1,1.1-2.5,1.7-4.3,1.7c-0.3,0-0.8-0.1-1.4-0.1l-0.2,0.7c1.5,1.5,2.1,2.2,3.3,3.8l5.1,6.6
		c0.5,0.6,2.9,2.8,4.9,3.2c0.7,0.1,2.2,0.2,3.9,0.1v-0.6c-2.3,0-3.6-0.8-5.1-2.8l-3.9-4.9c-1.7-2.2-2.7-3.3-3.8-5.2
		c2.1-0.5,3.7-1.5,4.8-2.9c2.5-3.1,2.2-9.6-1.5-11.4c-0.9-0.5-2.4-0.7-4.3-0.7c-0.7,0-1.8,0-3.4,0.1c-1.3,0-2.4,0.1-3.1,0.1
		C107.3,37.2,106.6,37.1,104.5,37z M37.2,39.1c-0.2-0.6-0.3-1.3-0.3-2.1H31v0.6l1.2,0.5c1.9,0.7,1.1,2.8,0.7,5.3
		c-0.7,4.7-1.3,9.4-2,14.1c-0.5,3.1-0.7,5.8-2.1,6.3l-0.7,0.4v0.7h6.4v-0.8C33,63.9,32.8,63,33,61.9l2.7-17.5l5.6,11.9
		c2.2,4.9,3.5,7.8,4,9h0.8c1.3-3.4,3.1-7.4,5.2-11.9l5.6-12.1l3.2,20.6c0.2,1.1,0,2-1.5,2.2v0.8H65v-0.7l-0.7-0.4
		c-1.4-0.5-1.6-3.2-2.1-6.3c-0.7-4.7-1.3-9.4-2-14.1c-0.4-2.5-1.2-4.6,0.7-5.3l1.2-0.5V37h-6c0.1,0.9,0,1.5-0.3,2.2
		c-1.7,3.9-3.2,7.3-4.6,10.2l-4.6,9.9l-5-10.6C40,45.3,38.5,42.1,37.2,39.1z"/>
</svg>
