<?xml version="1.0" encoding="utf-8"?>
<!-- Generator: Adobe Illustrator 22.0.1, SVG Export Plug-In . SVG Version: 6.00 Build 0)  -->
<svg version="1.1" id="Layer_1" xmlns="http://www.w3.org/2000/svg" xmlns:xlink="http://www.w3.org/1999/xlink" x="0px" y="0px"
	 viewBox="0 0 500 500" style="enable-background:new 0 0 500 500;" xml:space="preserve">
<g>
	<polygon style="fill:#FFFFFF;" points="251.4,5.2 251.4,5.9 250.2,5.2 40,123.9 39.8,369.3 250,496 250.7,495.5 251.3,495.9 
		461.7,377.3 461.9,131.9 	"/>
	<g>
		<path d="M271.1,247.8c45.5,11.9,92-15.3,103.9-60.7c11.9-45.5-15.3-92-60.7-103.9c-45.5-11.9-92,15.3-103.9,60.7
			C198.4,189.4,225.6,235.9,271.1,247.8z M228.3,148.6c9.3-35.5,45.8-56.8,81.2-47.5c35.5,9.3,56.8,45.8,47.5,81.2
			c-9.3,35.5-45.7,56.8-81.2,47.5C240.3,220.5,219,184.1,228.3,148.6z"/>
		<path d="M305.3,117.5l-3.6,13.7c18.9,5,30.3,24.4,25.3,43.3l13.7,3.6C347.7,151.6,331.8,124.4,305.3,117.5z"/>
		<path d="M208.3,212.6c-2.6-4.8-4.7-9.7-6.3-14.8c0,0,0,0,0,0l-90.2,50.4c-2.1,1.2-2.9,3.8-1.8,5.8l11.5,20.7
			c1.1,2,3.7,2.7,5.9,1.5l90.2-50.4c0,0,0,0,0,0C214.1,221.7,211,217.3,208.3,212.6z"/>
	</g>
	<g>
		<path d="M280,302.5c0-15.2-12.4-27.6-27.6-27.6c-15.2,0-27.6,12.4-27.6,27.6c0,15.2,12.4,27.6,27.6,27.6
			C267.6,330.1,280,317.8,280,302.5z"/>
		<path d="M293.7,374.7c-1.4-21.6-19.3-38.7-41.3-38.7c-22,0-39.1,17.1-40.5,38.7c-0.1,0.5,0.6,1,0.6,1.5v47.4
			c0,6.3,3,11.9,8.6,11.9h62.4c5.6,0,10.4-5.6,10.4-11.9v-47.4C294,375.7,293.8,375.2,293.7,374.7z"/>
	</g>
</g>
</svg>
