<?xml version="1.0" encoding="utf-8"?>
<!-- Generator: Adobe Illustrator 22.0.1, SVG Export Plug-In . SVG Version: 6.00 Build 0)  -->
<svg version="1.1" id="Layer_1" xmlns="http://www.w3.org/2000/svg" xmlns:xlink="http://www.w3.org/1999/xlink" x="0px" y="0px"
	 viewBox="0 0 500 500" style="enable-background:new 0 0 500 500;" xml:space="preserve">
<g>
	<polygon style="fill:#FFFFFF;" points="460.7,133.1 460.7,128.6 250.6,2 40.4,120.6 40.2,365.9 44.1,368.2 40.2,370.4 250.2,497 
		460.5,378.4 460.5,373.9 460.5,373.9 460.7,153.1 460.7,133.1 	"/>
	<g>
		<g>
			<path d="M410.3,234.1c0,0-21.7-48.1-28.7-61.8c-7.7-15-21.2-4.5-40.1,1.7c-18.9,6.2-38.9-10.7-60.3-10.7
				c-14.5,0-49.8,32.4-49.8,32.4l-21.5,18.2c-8.1,6.8-4.4,14.2,2.3,22.3c6.8,8.1,18.8,9.1,26.8,2.4c13.1-10.9,31.6-34.7,51.5-27.1
				c16.4,6.3,30.9,23.8,43,36c6.6,6.7,12.9,13.5,19.2,20.5c12,13.1,18.1,8.8,30.5-1.4c9.4-7.7,19.4-15.2,28.3-23.6
				C414.2,240.6,410.3,234.1,410.3,234.1z"/>
		</g>
		<path d="M350.9,278.9c-0.2-0.3-0.4-0.5-0.7-0.8c-1.5-1.4-2.9-2.8-4.1-4.1c-5.9-6.5-12.4-13.5-19-20.2c-2.1-2.1-4.3-4.4-6.6-6.8
			c-10.1-10.6-21.5-22.6-33.2-27.1c-1.5-0.6-3.1-0.9-4.7-0.9c-9.5,0-20.5,10.4-29.3,18.7c-3,2.8-5.8,5.5-8.5,7.7
			c-5,4.2-11.4,6.5-18,6.5c-8.3,0-16.2-3.7-21.6-10.1c-8.1-9.7-14.9-23.6-1.3-35l21.3-18.1c4.3-4,13.5-12.1,23.7-19.5
			c-5.3-7.6-20.6-21.8-63.6,5c-25.6,15.9-38.2,5.1-40.2,3.9c-5.2-3.2-13.6-10.7-19.6-2.3c-8.6,12.2-29.6,45.6-38.8,60.8
			c-2.8,4.7-2.8,8.7,0.1,10.5c6.6,4.1,18.8,11.5,27.7,17l20.3-21.2c4.6-4.9,11.1-7.7,17.8-7.7c6.2,0,12.1,2.3,16.6,6.5
			c4.4,4.1,6.8,9.5,7.4,15c0.6,1.4,1.1,2.7,1.5,4.2c1.7-0.4,3.4-0.6,5.2-0.6c6.1,0,11.9,2.3,16.4,6.5c4.9,4.6,7.4,10.8,7.5,17.1
			c2.6-0.9,5.3-1.5,8-1.5c6,0,11.7,2.3,16.1,6.4c5.3,4.9,7.6,11.7,7.3,18.3c2.8-1.2,5.8-1.8,8.9-1.8c5.9,0,11.5,2.2,15.9,6.3
			c9.3,8.7,9.8,23.4,1,32.9L247.9,362c6.7,4.9,16.1,4.2,21.9-2c4.2-4.5,5.3-10.7,3.6-16.2c0.1-0.1,0.3-0.2,0.4-0.2
			c6.7,5.8,16.8,5.4,22.9-1.2c4.1-4.4,5.3-10.5,3.8-15.9c0.2-0.1,0.3-0.2,0.5-0.3c6.6,4.4,15.6,3.5,21.2-2.5
			c3.8-4.1,5.2-9.6,4.1-14.7c0.1-0.1,0.3-0.2,0.4-0.3c6.7,4.6,15.8,3.8,21.5-2.2C354.4,299.8,357.6,285.2,350.9,278.9z"/>
		<g>
			<path d="M163.3,248.6c6.2,5.8,6.5,15.4,0.7,21.6L142.1,293c-5.8,6.2-15.4,6.5-21.6,0.7l0,0c-6.2-5.8-6.5-15.4-0.7-21.6l21.9-22.8
				C147.4,243.2,157.1,242.8,163.3,248.6L163.3,248.6z"/>
		</g>
		<g>
			<path d="M193.7,273.6c6,5.6,6.3,15.1,0.7,21.1L173,317c-5.6,6-15.1,6.3-21.1,0.7l0,0c-6-5.6-6.3-15.1-0.7-21.1l21.4-22.3
				C178.2,268.3,187.6,268,193.7,273.6L193.7,273.6z"/>
		</g>
		<g>
			<path d="M225.3,295.5c5.9,5.5,6.2,14.7,0.7,20.6l-20.8,21.7c-5.5,5.9-14.7,6.2-20.6,0.7l0,0c-5.9-5.5-6.2-14.7-0.7-20.6
				l20.8-21.7C210.3,290.3,219.5,290,225.3,295.5L225.3,295.5z"/>
		</g>
		<g>
			<path d="M257.4,318.3c5.7,5.3,6,14.3,0.7,20l-20.3,21.2c-5.3,5.7-14.3,6-20,0.7l0,0c-5.7-5.3-6-14.3-0.7-20l20.3-21.2
				C242.7,313.3,251.7,312.9,257.4,318.3L257.4,318.3z"/>
		</g>
	</g>
</g>
</svg>
