<?xml version="1.0" encoding="utf-8"?>
<!-- Generator: Adobe Illustrator 22.0.1, SVG Export Plug-In . SVG Version: 6.00 Build 0)  -->
<svg version="1.1" id="Layer_1" xmlns="http://www.w3.org/2000/svg" xmlns:xlink="http://www.w3.org/1999/xlink" x="0px" y="0px"
	 viewBox="0 0 500 500" style="enable-background:new 0 0 500 500;" xml:space="preserve">
<g>
	<polygon style="fill:#FFFFFF;" points="251.1,1.4 251.1,2.6 249.2,1.4 36.1,121.7 35.9,370.4 248.9,498.7 250,498.1 251,498.7 
		464.2,378.5 464.4,129.8 	"/>
	<g>
		<g>
			<path d="M175.9,268.2c0-59.8,48.6-108.4,108.4-108.4c5.6,0,11.1,0.4,16.5,1.3C287.2,120.7,249,91.5,204,91.5
				c-56.4,0-102.1,45.7-102.1,102.1c0,22,7,42.3,18.8,59l-10.3,42.8l43.5-12.8c7.7,4.4,16,7.7,24.8,10
				C176.9,284.7,175.9,276.6,175.9,268.2z"/>
		</g>
		<path d="M393.5,275.4c0-56.4-45.7-102.1-102.1-102.1c-56.4,0-102.1,45.7-102.1,102.1c0,56.4,45.7,102.1,102.1,102.1
			c18.2,0,35.3-4.8,50.1-13.2l43.5,12.8l-10.3-42.8C386.6,317.7,393.5,297.4,393.5,275.4z M251.1,315.8c-7.3,0-13.2-5.9-13.2-13.2
			c0-7.3,5.9-13.2,13.2-13.2c7.3,0,13.2,5.9,13.2,13.2C264.4,309.9,258.4,315.8,251.1,315.8z M289.3,315.8
			c-7.3,0-13.2-5.9-13.2-13.2c0-7.3,5.9-13.2,13.2-13.2c7.3,0,13.2,5.9,13.2,13.2C302.6,309.9,296.6,315.8,289.3,315.8z
			 M327.5,315.8c-7.3,0-13.2-5.9-13.2-13.2c0-7.3,5.9-13.2,13.2-13.2c7.3,0,13.2,5.9,13.2,13.2C340.7,309.9,334.8,315.8,327.5,315.8
			z"/>
	</g>
</g>
</svg>
