<?xml version="1.0" encoding="utf-8"?>
<!-- Generator: Adobe Illustrator 22.0.1, SVG Export Plug-In . SVG Version: 6.00 Build 0)  -->
<svg version="1.1" id="Layer_1" xmlns="http://www.w3.org/2000/svg" xmlns:xlink="http://www.w3.org/1999/xlink" x="0px" y="0px"
	 viewBox="0 0 500 500" style="enable-background:new 0 0 500 500;" xml:space="preserve">
<g>
	<polygon style="fill:#FFFFFF;" points="251.1,1.9 250.9,2 250.8,1.9 250.8,2.1 38.4,122 38.2,370.1 38.2,370.1 250.7,498.1 
		250.7,498.1 250.8,498.2 463.4,378.2 463.6,130 	"/>
	<path d="M428.4,304l-77-158.2c-0.8-1.8-2.6-1.8-4.6-1.8h-75.6V89.3c0-2.8-3.8-4.8-6.7-4.8h-20.3c-2.8,0-5,2-5,4.8v54.6H162
		c-1.9,0-3.7,0.1-4.6,1.8l-77,158.7c-0.6,1.3-0.7,2.5-0.2,3.8c0.7,1.9,18.9,47.2,82.7,47.2c63.7,0,81.9-45.4,82.7-47.4
		c0.5-1.3,0.4-2.2-0.2-3.5l-66.9-137.8h151.7l-66.9,137.8c-0.6,1.3-0.7,2.4-0.2,3.7c0.8,1.9,18.9,47.2,82.7,47.2
		c63.7,0,81.9-45.4,82.7-47.4C429,306.8,429,305.2,428.4,304z M218.3,295.1c0.6,0.8,0.9,1.7,0.9,2.7c0,2.5-2,5.3-4.6,5.3
		c0,0-0.1,0.8-0.1,0.8H111.2c-1.6,0-3-1.6-3.9-2.9c-0.8-1.3-0.9-3.4-0.2-4.8l51.6-107.1c1.5-3.2,6.7-3.2,8.2-0.1L218.3,295.1z
		 M397.8,303.2c0,0-0.1,0.8-0.1,0.8H294.4c-1.6,0-3-1.6-3.9-2.9c-0.8-1.3-0.9-3.4-0.2-4.8l51.6-107.1c1.5-3.2,6.7-3.2,8.2-0.1
		l51.3,106.1c0.6,0.8,0.9,2.1,0.9,3.1C402.4,300.8,400.3,303.2,397.8,303.2z"/>
</g>
</svg>
