<?xml version="1.0" encoding="utf-8"?>
<!-- Generator: Adobe Illustrator 22.0.1, SVG Export Plug-In . SVG Version: 6.00 Build 0)  -->
<svg version="1.1" id="Layer_1" xmlns="http://www.w3.org/2000/svg" xmlns:xlink="http://www.w3.org/1999/xlink" x="0px" y="0px"
	 viewBox="0 0 500 500" style="enable-background:new 0 0 500 500;" xml:space="preserve">
<g>
	<polygon style="fill:#FFFFFF;" points="251.1,2.2 251,2.3 250.9,2.2 250.9,2.4 38.7,122.1 38.5,369.9 38.5,370 250.7,497.9 
		250.8,497.8 250.8,497.9 463.2,378 463.4,130.2 	"/>
	<g>
		<path d="M394.5,326.7v-10l0-162.6c0-5.1-4.4-10.1-9.5-10.1l-260.3,0c-5.1,0-8.8,4.9-8.8,10.1l0,162.6v0v10H74.8v14.1l0,0
			c0,3.2,2.7,4.1,5.9,4.1l348.5,0c3.2,0,6.4-0.9,6.4-4.1v-14.1L394.5,326.7z M385.4,317.6l-260.3,0l0-159.8l260.3,0L385.4,317.6z"/>
		<path d="M157,185.1l0,118.7h91.3l0-118.7L157,185.1z M236.7,290.5l-67.9,0v-9.1l67.9,0V290.5z M236.7,273.4h-67.9v-9.1h67.9V273.4
			z M236.7,256.3l-67.9,0l0-9.1l67.9,0L236.7,256.3z M236.7,239.1h-67.9V230h67.9V239.1z M236.7,222h-67.9v-9.1h67.9V222z
			 M236.7,204.9h-67.9v-9.1h67.9V204.9z"/>
		<rect x="342.8" y="201.1" transform="matrix(0.5936 -0.8047 0.8047 0.5936 -27.2914 365.0225)" width="10" height="16.8"/>
		<path d="M336.9,210.2l-59.1,78.7l0,0l-0.1,0l0.5,13.6l13.2-3.5l59-78.6L336.9,210.2z M281.1,298.8V291l-0.2-0.2l8,5.9L281.1,298.8
			z"/>
	</g>
</g>
</svg>
