<?xml version="1.0" encoding="utf-8"?>
<!-- Generator: Adobe Illustrator 22.0.1, SVG Export Plug-In . SVG Version: 6.00 Build 0)  -->
<svg version="1.1" id="Layer_1" xmlns="http://www.w3.org/2000/svg" xmlns:xlink="http://www.w3.org/1999/xlink" x="0px" y="0px"
	 viewBox="0 0 500 500" style="enable-background:new 0 0 500 500;" xml:space="preserve">
<polyline style="fill:#FFFFFF;" points="280.3,291.2 280.3,299 288.2,296.9 280.1,290.9 "/>
<g>
	<polygon style="fill:#FFFFFF;" points="250.2,1.3 250.1,1.4 250,1.3 250,1.5 37,121.6 36.9,370.4 36.8,370.4 249.8,498.8 
		249.9,498.8 249.9,498.8 463.1,378.5 463.3,129.7 	"/>
	<g>
		<g>
			<path d="M277.8,208.4c25.6,0,46.3,20.2,46.3,45.1c0,9.7-3.2,18.7-8.5,26l4.7,18.9l-19.7-5.6c-6.7,3.7-14.5,5.8-22.7,5.8
				c-25.6,0-46.3-20.2-46.3-45.1C231.4,228.6,252.2,208.4,277.8,208.4z"/>
			<g>
				<path d="M225.4,250.4c0-26.4,22-47.8,49.1-47.8c2.5,0,5,0.2,7.5,0.6c-6.2-17.8-23.5-30.7-43.9-30.7c-25.6,0-46.3,20.2-46.3,45.1
					c0,9.7,3.2,18.7,8.5,26l-4.7,18.9l19.8-5.7c3.5,1.9,7.3,3.4,11.3,4.4C225.8,257.6,225.4,254.1,225.4,250.4z"/>
			</g>
		</g>
		<path d="M394.1,327v-10V153.7c0-5.1-4.4-10.1-9.5-10.1H123.4c-5.1,0-8.9,5-8.9,10.1v163.2v0v10H73.3v14.2l0,0
			c0,3.2,2.7,4.1,5.9,4.1H429c3.2,0,6.4-0.9,6.4-4.1V327H394.1z M385,317.8H123.7V157.4H385V317.8z"/>
	</g>
</g>
</svg>
