<?xml version="1.0" encoding="utf-8"?>
<!-- Generator: Adobe Illustrator 22.0.1, SVG Export Plug-In . SVG Version: 6.00 Build 0)  -->
<svg version="1.1" id="Layer_1" xmlns="http://www.w3.org/2000/svg" xmlns:xlink="http://www.w3.org/1999/xlink" x="0px" y="0px"
	 viewBox="0 0 500 500" style="enable-background:new 0 0 500 500;" xml:space="preserve">
<g>
	<polygon style="fill:#FFFFFF;" points="251.4,4 251,4.2 250.7,4 250.7,4.3 40.8,122.8 40.7,368.2 40.2,368.4 250.6,495.2 
		250.8,495.1 251.1,495.2 461.6,376.5 461.8,130.8 	"/>
	<path d="M381.8,116.6l-16.3-1.4c-1.2-0.1-2.3,0.8-2.5,2.1c-2.3,25.7-10,29-16.4,29c-7.1,0-9.4-1.7-21.9-13.7
		c-11.8-11.4-20.7-18.8-35.5-18.8c-22.4,0-36.7,18.1-38.1,48.6c-0.1,1.2,0.8,2.3,2.1,2.4l16.3,1.4c1.3,0.1,2.3-0.8,2.4-2.1
		c1.7-19,7.7-29.5,16.9-29.5c7.3,0,9.5,1.4,21.9,13.2c12.5,12,21.1,19.3,35.5,19.3c22.8,0,36.1-17.1,37.7-48.1
		C383.9,117.7,383,116.7,381.8,116.6z"/>
	<g>
		<path d="M286.9,359.3c45.5,12,92.1-15.3,104-60.8c11.9-45.5-15.3-92.1-60.8-104c-45.5-11.9-92.1,15.3-104,60.8
			C214.1,300.8,241.4,347.4,286.9,359.3z M244.1,260c9.3-35.5,45.8-56.8,81.3-47.5c35.5,9.3,56.8,45.8,47.5,81.3
			c-9.3,35.5-45.8,56.8-81.3,47.5C256.1,332,234.8,295.6,244.1,260z"/>
		<path d="M321.1,228.9l-3.6,13.7c18.9,5,30.3,24.4,25.3,43.3l13.7,3.6C363.5,263,347.6,235.8,321.1,228.9z"/>
		<path d="M224,324c-2.7-4.8-4.7-9.7-6.4-14.8c0,0,0,0,0,0l-90.3,50.5c-2.1,1.2-3,3.8-1.8,5.8l11.5,20.8c1.1,2,3.7,2.7,5.9,1.5
			l90.3-50.5c0,0,0,0,0,0C229.8,333.2,226.7,328.8,224,324z"/>
	</g>
</g>
</svg>
