<?xml version="1.0" encoding="utf-8"?>
<!-- Generator: Adobe Illustrator 22.0.1, SVG Export Plug-In . SVG Version: 6.00 Build 0)  -->
<svg version="1.1" id="Layer_1" xmlns="http://www.w3.org/2000/svg" xmlns:xlink="http://www.w3.org/1999/xlink" x="0px" y="0px"
	 viewBox="0 0 500 500" style="enable-background:new 0 0 500 500;" xml:space="preserve">
<g>
	<polygon style="fill:#FFFFFF;" points="250.5,5.8 250.4,5.9 250.2,5.8 250.2,6 41.6,123.7 41.4,367.5 41.4,367.5 250.1,493.4 
		250.2,493.3 250.2,493.4 459.2,375.5 459.4,131.7 	"/>
	<path d="M346,241.3c0-55.3-44.8-100.1-100.1-100.1c-55.3,0-100.1,44.8-100.1,100.1c0,55.3,44.8,100.1,100.1,100.1
		c17.9,0,34.6-4.7,49.1-12.9l42.7,12.6l-10.1-41.9C339.1,282.8,346,262.9,346,241.3z M248.5,182.9c0-2.1,1.7-3.7,3.7-3.7l0,0
		c30.1,1.9,54.1,25.9,56,56c0,2.1-1.7,3.7-3.7,3.7c0,0,0,0,0,0v0h-52.2c-2.1,0-3.7-1.7-3.7-3.7V182.9z M279.6,288.6L279.6,288.6
		c-10.5,9.2-24.3,14.8-39.4,14.8c-33,0-59.8-26.8-59.8-59.8c0-31.8,24.8-57.8,56.1-59.7v0c2.1,0,3.7,1.6,3.7,3.7V242h0
		c0,1,0.4,1.9,1.1,2.6v0l38.5,38.5c0,0,0,0,0,0h0v0c0.7,0.7,1.1,1.6,1.1,2.6C280.9,286.9,280.4,288,279.6,288.6z M316,251.1
		c-1,13.2-6.2,25.2-14.3,34.6c-0.7,1-1.8,1.6-3.1,1.6c-1.1,0-2-0.5-2.7-1.2h0l-33.1-33.1c-0.7-0.7-1.1-1.6-1.1-2.7
		c0-2.1,1.7-3.7,3.7-3.7h47c2.1,0,3.7,1.7,3.7,3.7C316.1,250.7,316,250.9,316,251.1z"/>
</g>
</svg>
