<?xml version="1.0" encoding="utf-8"?>
<!-- Generator: Adobe Illustrator 22.0.1, SVG Export Plug-In . SVG Version: 6.00 Build 0)  -->
<svg version="1.1" id="Layer_1" xmlns="http://www.w3.org/2000/svg" xmlns:xlink="http://www.w3.org/1999/xlink" x="0px" y="0px"
	 viewBox="0 0 500 500" style="enable-background:new 0 0 500 500;" xml:space="preserve">
<g>
	<polygon style="fill:#FFFFFF;" points="251.1,5 251.1,6.2 249.2,5 39.1,123.6 38.9,368.8 248.9,495.4 250,494.8 251,495.3 
		461.2,376.8 461.4,131.6 	"/>
	<path d="M391.7,153.4c-0.5-3-2.1-5.6-4.5-7.4l-36.5-26.6c-2.4-1.8-5.4-2.5-8.4-2.1c-3,0.5-5.6,2.1-7.4,4.5L199.7,307.1l-35.9-34.8
		c-4.3-4.2-11.8-4.1-16,0.2l-31.5,32.4c-2.1,2.1-3.3,5.1-3.2,8.1c0,3,1.3,5.8,3.4,7.9l82.5,80.1c2.1,2.1,4.9,3.2,7.9,3.2
		c0.2,0,0.8,0,1,0c3.3-0.3,6.2-2,8.1-4.6l173.6-237.8C391.5,159.3,392.2,156.4,391.7,153.4z"/>
</g>
</svg>
