<?xml version="1.0" encoding="utf-8"?>
<!-- Generator: Adobe Illustrator 22.0.1, SVG Export Plug-In . SVG Version: 6.00 Build 0)  -->
<svg version="1.1" id="Layer_1" xmlns="http://www.w3.org/2000/svg" xmlns:xlink="http://www.w3.org/1999/xlink" x="0px" y="0px"
	 viewBox="0 0 500 500" style="enable-background:new 0 0 500 500;" xml:space="preserve">
<g>
	<polygon style="fill:#FFFFFF;" points="251.1,4.6 250.9,4.7 250.8,4.6 250.8,4.8 40.6,123.4 40.4,369 40.4,369 250.7,495.7 
		250.7,495.7 250.8,495.8 461.3,377 461.5,131.4 	"/>
	<g>
		<path d="M226.8,186.6c0.4-0.5,0.5-1.1,0.4-1.7c-7.6-48.5-24.6-58.4-47.9-58.4c-12,0-26.1,2.7-42.4,5.9
			c-12.8,2.5-27.4,5.3-43.2,7.1c-0.6,0.1-1.2,0.4-1.6,0.9c-0.4,0.5-0.5,1.2-0.4,1.8c3.5,16.4,18.8,28.9,45.6,37.1
			c27.3,8.3,56.8,9.2,68.2,9.2c7.3,0,14.3-0.3,19.6-1C225.9,187.4,226.4,187.1,226.8,186.6z"/>
		<path d="M410.5,140.4c-0.4-0.5-0.9-0.9-1.6-0.9c-15.8-1.9-30.3-4.7-43.2-7.1c-16.3-3.1-30.4-5.9-42.4-5.9
			c-23.2,0-40.3,9.9-47.9,58.4c-0.1,0.6,0.1,1.2,0.4,1.7c0.4,0.5,0.9,0.8,1.5,0.9c5.4,0.6,12.3,1,19.6,1c11.4,0,40.9-0.9,68.2-9.2
			c26.7-8.2,42.1-20.6,45.6-37.1C411,141.6,410.8,140.9,410.5,140.4z"/>
		<path d="M292.8,231.1c0-17.2-10.5-32-25.5-38.2l4.3-78.7c0.1-1.2-0.4-2.7-1.2-3.6c-0.9-0.9-2-1.6-3.3-1.6h-31.6
			c-1.2,0-2.4,0.7-3.3,1.6c-0.9,0.9-1.3,2.2-1.2,3.5l4.4,78.8c-14.9,6.3-25.5,21.1-25.5,38.3c0,15.9,9,29.7,22.2,36.7
			c-7.9,5.9-13.1,15.3-13.1,26c0,12.2,6.8,22.8,16.7,28.3c-3.8,3.9-6.2,9.3-6.2,15.1c0,9.6,6.3,17.7,14.9,20.6l2.4,42.6
			c0.1,2.4,2.1,4.3,4.5,4.3c2.4,0,4.4-1.9,4.5-4.3l2.4-42.6c8.6-2.9,14.9-11,14.9-20.6c0-5.9-2.4-11.2-6.2-15.1
			c10-5.5,16.7-16.1,16.7-28.3c0-10.6-5.2-20.1-13.1-26C283.8,260.8,292.8,247,292.8,231.1z M219,231.1c0-12.3,6.9-23,17-28.5
			l3.2,58.5C227.3,256.2,219,244.6,219,231.1z M228,293.7c0-8.7,4.8-16.1,11.8-20.2l2.3,41.6C233.9,311.6,228,303.3,228,293.7z
			 M236.3,337.2c0-5,2.5-9.5,6.3-12.2l1.4,25.3C239.5,347.7,236.3,342.8,236.3,337.2z M258.7,350.3L260,325
			c3.8,2.7,6.3,7.2,6.3,12.2C266.4,342.8,263.2,347.7,258.7,350.3z M274.7,293.7c0,9.6-5.8,17.8-14.1,21.4l2.3-41.6
			C269.9,277.6,274.7,285.1,274.7,293.7z M263.6,261.1l3.2-58.5c10.1,5.5,17,16.2,17,28.5C283.8,244.6,275.4,256.2,263.6,261.1z"/>
	</g>
</g>
</svg>
