<?xml version="1.0" encoding="utf-8"?>
<!-- Generator: Adobe Illustrator 22.0.1, SVG Export Plug-In . SVG Version: 6.00 Build 0)  -->
<svg version="1.1" id="Layer_1" xmlns="http://www.w3.org/2000/svg" xmlns:xlink="http://www.w3.org/1999/xlink" x="0px" y="0px"
	 viewBox="0 0 500 500" style="enable-background:new 0 0 500 500;" xml:space="preserve">
<g>
	<polygon style="fill:#FFFFFF;" points="250.5,3.7 250.4,3.8 250.2,3.7 250.2,3.8 39.2,122.9 39.1,369.5 39,369.5 250.1,496.7 
		250.1,496.7 250.2,496.7 461.5,377.5 461.7,130.9 	"/>
	<g>
		<path d="M253.4,145.1c-1.7-1.5-4.3-1.5-6,0L148.7,233c-1,0.9-0.9,2.1-0.9,3.4v125.6c0,5.7,3.4,9.8,9.1,9.8H219c2.5,0,6-1.4,6-3.9
			v-55.1c0-0.7-0.9,0-0.2,0h51c0.7,0-0.8-0.7-0.8,0V368c0,2.5,4.2,3.9,6.7,3.9h62.1c5.7,0,8.4-4,8.4-9.8V236.4
			c0-1.3,0.4-2.5-0.6-3.4L253.4,145.1z"/>
		<path d="M394.8,215.9L253.9,91.1l-0.6-0.5c-1.7-1.5-4.3-1.5-6,0.1L106,215.9c-0.9,0.8-1.4,1.9-1.5,3.1c-0.1,1.2,0.3,2.4,1.1,3.3
			l14.8,16.7c0.9,1,2.1,1.5,3.4,1.5c1.1,0,2.1-0.4,3-1.1L250.4,130L374,239.4c0.9,0.8,2.1,1.2,3.3,1.1c1.2-0.1,2.3-0.6,3.1-1.5
			l14.8-16.7C396.9,220.4,396.7,217.5,394.8,215.9z"/>
	</g>
</g>
</svg>
