<svg version="1.1" id="Layer_1" xmlns="http://www.w3.org/2000/svg" xmlns:xlink="http://www.w3.org/1999/xlink" x="0px" y="0px"
	 viewBox="0 0 500 500" style="enable-background:new 0 0 500 500;" xml:space="preserve">
	<path d="M250,30.4c121.1,0,219.6,98.5,219.6,219.6S371.1,469.6,250,469.6c-121.1,0-219.6-98.5-219.6-219.6
		S128.9,30.4,250,30.4 M250,1.3C112.6,1.3,1.2,112.6,1.2,250c0,137.4,111.4,248.7,248.8,248.7c137.4,0,248.8-111.4,248.8-248.7
		C498.8,112.6,387.4,1.3,250,1.3L250,1.3z"/>
		<path d="M221,358.2c-3.2,0-6.5-1.1-9.2-3.3l-86.2-70.1c-6.2-5.1-7.2-14.3-2.1-20.5c5.1-6.2,14.3-7.2,20.5-2.1
			l75.1,61.1l135.7-159c5.2-6.1,14.4-6.8,20.5-1.6c6.1,5.2,6.9,14.4,1.6,20.5L232.1,353.1C229.2,356.4,225.1,358.2,221,358.2z"/>
</svg>
