<svg version="1.1" id="Layer_1" xmlns="http://www.w3.org/2000/svg" xmlns:xlink="http://www.w3.org/1999/xlink" x="0px" y="0px"
	 viewBox="0 0 500 500" style="enable-background:new 0 0 500 500;" xml:space="preserve">
	<path d="M250,164.6c-22.8,0-44.2,8.9-60.4,25c-16.1,16.1-25,37.5-25,60.4c0,22.8,8.9,44.2,25,60.4
		c16.1,16.1,37.5,25,60.4,25c22.8,0,44.2-8.9,60.4-25c16.1-16.1,25-37.5,25-60.4c0-22.8-8.9-44.2-25-60.4
		C294.2,173.5,272.8,164.6,250,164.6z M250,192.2c15.4,0,29.9,6,40.9,16.9c10.9,10.9,16.9,25.4,16.9,40.8c0,15.4-6,29.9-16.9,40.8
		c-10.9,10.9-25.5,17.1-40.9,17.1c-15.4,0-29.9-6-40.8-16.9c-10.9-10.9-16.9-25.4-16.9-40.9c0-15.4,6-29.9,16.9-40.9
		C220.1,198.2,234.6,192.2,250,192.2z"/>
	<path d="M483.8,192.7h-52.2c-3.3-10.6-7.6-20.9-12.7-30.7l36.9-36.9c5.4-5.4,5.4-14.1,0-19.5l-61.3-61.3
		c-2.7-2.7-6.2-4-9.8-4c-3.5,0-7.1,1.3-9.8,4L338,81.2c-9.8-5.1-20.1-9.4-30.7-12.7V16.3c0-3.7-1.5-7.2-4-9.8c-2.5-2.6-6.3-4-9.9-4
		h-86.8c-7.6,0-13.8,6.2-13.8,13.8v52.2c-10.6,3.3-20.9,7.6-30.7,12.7l-36.9-36.9c-2.7-2.7-6.2-4-9.8-4c-3.6,0-7.1,1.3-9.8,4
		l-61.3,61.3c-5.4,5.4-5.4,14.1,0,19.5L81.2,162c-5.1,9.8-9.4,20.1-12.7,30.7H16.3c-7.6,0-13.8,6.2-13.8,13.8v86.8
		c0,7.6,6.2,13.8,13.8,13.8h52.2c3.3,10.6,7.6,20.9,12.7,30.7l-36.9,36.9c-5.4,5.4-5.4,14.1,0,19.5l61.3,61.3c2.7,2.7,6.2,4,9.8,4
		c3.6,0,7.1-1.3,9.8-4l36.9-36.9c9.8,5.1,20.1,9.4,30.8,12.7v52.2c0,7.6,6.2,13.8,13.8,13.8h86.8c7.6,0,13.8-6.2,13.8-13.8v-52.2
		c10.6-3.3,20.9-7.6,30.7-12.7l36.9,36.9c2.7,2.7,6.2,4,9.8,4c3.5,0,7.1-1.3,9.8-4l61.3-61.3c5.4-5.4,5.4-14.1,0-19.5l-36.9-36.9
		c5.1-9.8,9.4-20.1,12.7-30.7h52.2c7.6,0,13.8-6.2,13.8-13.8v-86.8C497.6,198.9,491.4,192.7,483.8,192.7z M407.7,290
		c-3.9,15.3-9.9,29.9-17.9,43.2c-3.2,5.4-2.4,12.4,2.1,16.8l34.5,34.5l-41.8,41.8l-34.5-34.5c-2.7-2.7-6.2-4-9.8-4
		c-2.4,0-4.9,0.6-7.1,2c-13.4,8-28,14.1-43.2,17.9c-6.1,1.5-10.4,7-10.4,13.4V470h-59.2v-48.8c0-6.3-4.3-11.8-10.4-13.4
		c-15.3-3.9-29.8-9.9-43.2-17.9c-2.2-1.3-4.6-1.9-7.1-1.9c-3.6,0-7.1,1.4-9.8,4l-34.5,34.5l-41.8-41.8l34.5-34.5
		c4.5-4.5,5.3-11.4,2.1-16.8c-8-13.4-14-27.9-17.9-43.2c-1.5-6.1-7.1-10.4-13.4-10.4H30v-59.2h48.9c6.3,0,11.8-4.3,13.4-10.4
		c3.8-15.2,9.8-29.8,17.9-43.2c3.2-5.4,2.4-12.4-2.1-16.8l-34.5-34.5l41.8-41.8l34.5,34.5c2.7,2.4,6.2,3.7,9.8,3.7
		c2.4,0,4.9-0.6,7.1-2c13.4-8,27.9-14,43.2-17.9c6.1-1.6,10.4-7.1,10.4-13.4V30.1h59.2V79c0,6.3,4.3,11.8,10.4,13.4
		c15.3,3.9,29.8,9.9,43.2,17.9c2.2,1.3,4.7,2,7.1,2c3.6,0,7.1-1.4,9.8-4.1l34.5-34.5l41.8,41.8L391.9,150
		c-4.5,4.5-5.3,11.4-2.1,16.8c8,13.3,14,27.9,17.9,43.2c1.5,6.1,7.1,10.4,13.4,10.4H470v59.2h-48.9
		C414.8,279.6,409.3,283.9,407.7,290z"/>
</svg>
