<svg version="1.1" id="Layer_1" xmlns="http://www.w3.org/2000/svg" xmlns:xlink="http://www.w3.org/1999/xlink" x="0px" y="0px"
	 viewBox="0 0 500 500" style="enable-background:new 0 0 500 500;" xml:space="preserve">
		<path d="M17.3,259.8c-5.4,0-9.8-4.4-9.8-9.8C7.5,116.3,116.3,7.5,250,7.5c28.9,0,57.1,5,83.8,14.8
			c26.6,9.8,51.2,24.2,73,42.7l9.8,8.3L412,49c-0.5-2.6,0.1-5.2,1.5-7.4c1.5-2.2,3.7-3.6,6.3-4.1c0.6-0.1,1.2-0.2,1.9-0.2
			c4.7,0,8.7,3.4,9.6,8l9.8,52.4c0.5,2.9-0.2,5.8-2.1,8.1c-1.9,2.3-4.6,3.5-7.6,3.5h-55.7c-5.4,0-9.8-4.4-9.8-9.8s4.4-9.8,9.8-9.8
			h29.6l-9.2-8C355.8,46.6,303.8,27.1,250,27.1c-122.9,0-222.9,100-222.9,222.9C27.1,255.4,22.7,259.8,17.3,259.8z"/>
		<path  d="M250,12.1c28.3,0,56,4.9,82.2,14.5c26.1,9.6,50.2,23.7,71.6,41.9l19.6,16.7l-4.7-25.3l-2.2-11.7
			c-0.3-1.4,0-2.8,0.8-3.9c0.8-1.2,2-1.9,3.4-2.2c0.3-0.1,0.7-0.1,1-0.1c2.5,0,4.7,1.8,5.1,4.3l9.8,52.4c0.3,1.5-0.1,3.1-1.1,4.3
			c-1,1.2-2.5,1.9-4,1.9h-55.7c-2.9,0-5.3-2.4-5.3-5.3c0-2.9,2.4-5.3,5.3-5.3h17.4h24.3l-18.3-16c-20.6-18-44-31.9-69.3-41.4
			c-25.5-9.5-52.3-14.4-79.9-14.4c-125.4,0-227.4,102-227.4,227.4c0,2.9-2.4,5.3-5.3,5.3s-5.3-2.4-5.3-5.3
			C12.1,118.8,118.8,12.1,250,12.1 M250,3C113.8,3,3,113.8,3,250c0,7.9,6.4,14.4,14.4,14.4c7.9,0,14.4-6.4,14.4-14.4
			c0-120.4,97.9-218.3,218.3-218.3c53.2,0,103.5,18.9,143.2,53.5h-17.4c-7.9,0-14.4,6.4-14.4,14.4c0,7.9,6.4,14.4,14.4,14.4h55.7
			c4.3,0,8.3-1.9,11.1-5.2c2.7-3.3,3.9-7.6,3.1-11.8l-9.8-52.4c-1.3-6.9-7.3-11.7-14.1-11.7c-0.9,0-1.8,0.1-2.7,0.3
			c-7.8,1.5-12.9,9-11.5,16.8l2.2,11.7C365.2,23.6,309.2,3,250,3L250,3z"/>
		<path  d="M250,492.5c-58.1,0-114.4-20.9-158.4-58.9l-9.9-8.5l5,26.6c0.5,2.6-0.1,5.2-1.5,7.4c-1.5,2.2-3.7,3.6-6.3,4.1
			c-0.6,0.1-1.2,0.2-1.8,0.2c-4.7,0-8.8-3.4-9.6-8l-9.8-52.4c-0.5-2.9,0.2-5.8,2.1-8.1c1.9-2.3,4.6-3.5,7.6-3.5H123
			c5.4,0,9.8,4.4,9.8,9.8s-4.4,9.8-9.8,9.8H95.4l9.3,8c40.4,34.8,92,53.9,145.3,53.9c122.9,0,222.9-100,222.9-222.9
			c0-5.4,4.4-9.8,9.8-9.8s9.8,4.4,9.8,9.8C492.5,383.7,383.7,492.5,250,492.5z"/>
		<path  d="M482.7,244.7c2.9,0,5.3,2.4,5.3,5.3c0,131.2-106.7,237.9-237.9,237.9c-57.1,0-112.2-20.5-155.4-57.8l-19.7-17
			l4.8,25.6l2.6,13.8c0.5,2.8-1.3,5.6-4.2,6.1c-0.3,0.1-0.6,0.1-1,0.1c-2.5,0-4.7-1.8-5.2-4.3l-9.8-52.4c-0.3-1.5,0.1-3.1,1.1-4.3
			c1-1.2,2.5-1.9,4-1.9H123c2.9,0,5.3,2.4,5.3,5.3c0,2.9-2.4,5.3-5.3,5.3h-15.4H83.1l18.6,16c41.2,35.5,93.9,55,148.3,55
			c125.4,0,227.4-102,227.4-227.4C477.4,247.1,479.8,244.7,482.7,244.7 M482.7,235.6c-7.9,0-14.4,6.4-14.4,14.4
			c0,120.4-97.9,218.3-218.3,218.3c-52.4,0-102.8-18.7-142.4-52.8H123c7.9,0,14.4-6.4,14.4-14.4c0-7.9-6.4-14.4-14.4-14.4H67.3
			c-4.3,0-8.3,1.9-11.1,5.2c-2.7,3.3-3.9,7.6-3.1,11.8l9.8,52.4c1.3,6.9,7.3,11.7,14.1,11.7c0.9,0,1.8-0.1,2.7-0.2
			c7.8-1.5,12.9-9,11.5-16.8l-2.6-13.8c44.8,38.7,102,60,161.3,60c136.2,0,247-110.8,247-247C497,242.1,490.6,235.6,482.7,235.6
			L482.7,235.6z"/>
		<path  d="M288.9,392.5c-14.4,0-26.2-11.8-26.2-26.2c0-4.1,0.9-8,2.8-11.7l1.2-2.5l-54.8-76.4l-2.7,0.4
			c-1.2,0.2-2.4,0.2-3.5,0.2c-0.9,0-1.8,0-2.7-0.1l-2.7-0.3l-34.3,51.5l1.3,2.4c2.1,3.8,3.2,8.1,3.2,12.5
			c0,14.4-11.8,26.2-26.2,26.2c-14.4,0-26.2-11.8-26.2-26.2s11.8-26.2,26.2-26.2c0.9,0,1.8,0,2.7,0.1l2.7,0.3l34.3-51.5l-1.3-2.4
			c-2.1-3.8-3.2-8.1-3.2-12.5c0-14.4,11.8-26.2,26.2-26.2s26.2,11.8,26.2,26.2c0,4.1-0.9,8-2.8,11.7l-1.2,2.5l54.8,76.4l2.7-0.4
			c0.9-0.1,1.9-0.2,2.8-0.2l2.7-0.1l73.2-147.8l-1.6-2.2c-3.2-4.5-4.9-9.8-4.9-15.3c0-14.4,11.8-26.2,26.2-26.2s26.2,11.8,26.2,26.2
			c0,14.3-11.2,25.8-25.5,26.2l-2.7,0.1l-73.2,147.8l1.6,2.2c3.2,4.5,5,9.8,5,15.3C315.1,380.8,303.4,392.5,288.9,392.5z"/>
		<path  d="M383.8,153.1c11.9,0,21.6,9.7,21.6,21.6c0,11.8-9.3,21.3-21.1,21.6l-5.5,0.1l-2.4,4.9l-70.7,142.8l-2.4,4.9
			l3.2,4.5c2.7,3.7,4.1,8.1,4.1,12.6c0,11.9-9.7,21.6-21.6,21.6c-11.9,0-21.6-9.7-21.6-21.6c0-3.4,0.8-6.6,2.3-9.7l2.5-4.9l-3.2-4.5
			l-51.6-72l-3.2-4.5l-5.4,0.7c-1,0.1-2,0.2-2.9,0.2c-0.7,0-1.5,0-2.2-0.1l-5.5-0.6l-3,4.6l-31.3,46.9l-3,4.6l2.6,4.8
			c1.7,3.2,2.6,6.7,2.6,10.3c0,11.9-9.7,21.6-21.6,21.6c-11.9,0-21.6-9.7-21.6-21.6c0-11.9,9.7-21.6,21.6-21.6c0.7,0,1.5,0,2.2,0.1
			l5.5,0.6l3-4.6l31.3-46.9l3-4.6l-2.6-4.8c-1.7-3.2-2.6-6.7-2.6-10.3c0-11.9,9.7-21.6,21.6-21.6c11.9,0,21.6,9.7,21.6,21.6
			c0,3.4-0.8,6.6-2.3,9.7l-2.5,4.9l3.2,4.5l51.6,72l3.2,4.5l5.4-0.7c0.8-0.1,1.6-0.2,2.4-0.2l5.5-0.1l2.4-4.9L367,196.8l2.4-4.9
			l-3.2-4.5c-2.7-3.7-4.1-8.1-4.1-12.6C362.1,162.9,371.8,153.1,383.8,153.1 M383.8,144c-17,0-30.8,13.8-30.8,30.8
			c0,6.7,2.2,12.9,5.8,18l-70.7,142.8c-1.1,0-2.2,0.1-3.3,0.3l-51.6-72c2.1-4.1,3.2-8.8,3.2-13.7c0-17-13.8-30.8-30.8-30.8
			c-17,0-30.8,13.8-30.8,30.8c0,5.3,1.3,10.3,3.7,14.7l-31.3,46.9c-1-0.1-2.1-0.2-3.1-0.2c-17,0-30.8,13.8-30.8,30.8
			c0,17,13.8,30.8,30.8,30.8c17,0,30.8-13.8,30.8-30.8c0-5.3-1.3-10.3-3.7-14.7l31.3-46.9c1,0.1,2.1,0.2,3.1,0.2
			c1.4,0,2.8-0.1,4.2-0.3l51.6,72c-2.1,4.1-3.2,8.8-3.2,13.7c0,17,13.8,30.8,30.8,30.8c17,0,30.8-13.8,30.8-30.8
			c0-6.7-2.2-12.9-5.8-18l70.7-142.8c16.6-0.4,29.9-14,29.9-30.7C414.5,157.8,400.8,144,383.8,144L383.8,144z"/>
</svg>
